<svg height="496pt" viewBox="-48 0 496 496" width="496pt" xmlns="http://www.w3.org/2000/svg"><path d="m8 96v312c0 44.160156 86 80 192 80s192-35.839844 192-80v-312l-.878906-.160156c-9.519532 40.480468-91.519532 72.160156-191.121094 72.160156s-181.601562-31.679688-191.121094-72.160156zm0 0" fill="#78b9eb"/><path d="m400 88c0-49.34375-87.847656-88-200-88s-200 38.65625-200 88c.0078125 2.6875.277344 5.363281.800781 8h-.800781v312c0 49.34375 87.847656 88 200 88s200-38.65625 200-88v-312h-.800781c.523437-2.636719.792969-5.3125.800781-8zm-200-72c110.0625 0 184 37.230469 184 72s-73.9375 72-184 72-184-37.230469-184-72 73.9375-72 184-72zm0 464c-110.0625 0-184-37.230469-184-72v-44.921875c30.238281 31.410156 100.351562 52.921875 184 52.921875s153.761719-21.511719 184-52.921875v44.921875c0 34.769531-73.9375 72-184 72zm0-80c-110.0625 0-184-37.230469-184-72v-44.921875c30.238281 31.410156 100.351562 52.921875 184 52.921875s153.761719-21.511719 184-52.921875v44.921875c0 34.769531-73.9375 72-184 72zm0-80c-110.0625 0-184-37.230469-184-72v-44.921875c30.238281 31.410156 100.351562 52.921875 184 52.921875s153.761719-21.511719 184-52.921875v44.921875c0 34.769531-73.9375 72-184 72zm0-80c-110.0625 0-184-37.230469-184-72v-44.921875c30.238281 31.410156 100.351562 52.921875 184 52.921875s153.761719-21.511719 184-52.921875v44.921875c0 34.769531-73.9375 72-184 72zm0 0" fill="#1a6fb0"/></svg>